<svg xmlns="http://www.w3.org/2000/svg" version="1.1" xmlns:xlink="http://www.w3.org/1999/xlink" width="40" height="40" x="0" y="0" viewBox="0 0 512 512" style="enable-background:new 0 0 512 512" xml:space="preserve" fill-rule="evenodd" class=""><g><path d="M384.405 235.299c-6.627 0-11.994-5.367-11.994-11.994 0-46.133-37.533-83.665-83.665-83.665-15.793 0-15.793-23.987 0-23.987 59.359 0 107.652 48.294 107.652 107.652 0 6.627-5.367 11.994-11.993 11.994zM356.683 511.86c-41.37 0-80.156-16.004-109.219-45.066L45.255 264.579c-60.217-60.218-60.217-158.21.005-218.434l24.487-24.488c4.685-4.68 12.277-4.68 16.96 0L211.93 146.88c4.679 4.677 4.676 12.29 0 16.966l-36.578 36.576 136.274 136.274 36.575-36.572c4.499-4.498 12.46-4.498 16.957 0l125.222 125.222c4.687 4.682 4.687 12.277 0 16.958l-24.487 24.487c-29.05 29.065-67.839 45.068-109.209 45.068zM78.23 47.103 62.225 63.112c-50.872 50.868-50.872 133.643 0 184.51l202.21 202.213c50.755 50.754 133.756 50.761 184.51 0l16.004-16.009-108.266-108.261-36.575 36.572c-4.499 4.499-12.46 4.499-16.958 0L149.914 208.9c-4.679-4.677-4.676-12.29 0-16.967l36.579-36.575L78.229 47.103zm421.687 188.196c-6.627 0-11.994-5.367-11.994-11.994 0-109.828-89.35-199.178-199.178-199.178-15.79 0-15.79-23.986 0-23.986 123.054 0 223.165 100.111 223.165 223.164 0 6.627-5.367 11.994-11.993 11.994zm-57.756 0c-6.626 0-11.993-5.367-11.993-11.994 0-77.981-63.44-141.422-141.423-141.422-15.79 0-15.791-23.987 0-23.987 91.204 0 165.41 74.2 165.41 165.409 0 6.627-5.368 11.994-11.994 11.994z" fill="#4361ee" opacity="1" data-original="#000000" class=""></path></g></svg>