<svg xmlns="http://www.w3.org/2000/svg" version="1.1" xmlns:xlink="http://www.w3.org/1999/xlink" width="50" height="50" x="0" y="0" viewBox="0 0 24 24" style="enable-background:new 0 0 512 512" xml:space="preserve" class=""><g><path fill="#4361ee" fill-rule="evenodd" d="M5 22a3 3 0 0 1-3-3V5a3 3 0 0 1 3-3h14a3 3 0 0 1 3 3v14a3 3 0 0 1-3 3zm2-5a1 1 0 1 0 2 0v-6a1 1 0 1 0-2 0zm5 1a1 1 0 0 1-1-1V7a1 1 0 1 1 2 0v10a1 1 0 0 1-1 1zm3-1a1 1 0 1 0 2 0v-3a1 1 0 1 0-2 0z" clip-rule="evenodd" opacity="1" data-original="#000000" class=""></path></g></svg>